<?xml version="1.0" encoding="UTF-8" standalone="no"?>
<!-- Created with Inkscape (http://www.inkscape.org/) -->

<svg
   version="1.1"
   id="svg1"
   width="260.01025"
   height="555"
   viewBox="0 0 260.01025 555"
   xmlns="http://www.w3.org/2000/svg"
   xmlns:svg="http://www.w3.org/2000/svg">
  <defs
     id="defs1" />
  <g
     id="g1"
     transform="translate(-170,-22.999996)">
    <g
       id="g3">
      <path
         style="fill:#fefefe"
         d="m 177.72249,575.99635 c -1.40098,-1.10201 -3.71167,-4.34037 -5.13486,-7.19635 L 170,563.60731 V 300.27154 c 0,-221.165294 0.22018,-263.862734 1.3749,-266.626386 0.7562,-1.809835 2.82782,-4.945382 4.6036,-6.967881 L 179.20718,23 h 22.9278 c 17.48442,0 23.01288,0.296767 23.28619,1.25 2.38715,8.325676 3.7747,10.534578 7.74094,12.323102 3.85478,1.738263 7.94685,1.84882 67.78972,1.831488 l 63.68731,-0.01845 3.56277,-2.201915 c 3.45536,-2.135526 5.03794,-4.726995 6.37206,-10.434229 l 0.64285,-2.75 h 22.69542 22.69543 l 3.14548,3.25 C 430.5417,33.264106 430,9.5023188 430,300.27154 V 563.60731 L 427.41237,568.8 c -1.42319,2.85598 -3.73388,6.09434 -5.13486,7.19635 C 419.76095,577.97588 418.28883,578 300,578 181.71117,578 180.23905,577.9759 177.72249,575.99635 Z"
         id="path4" />
    </g>
  </g>
</svg>
